<svg xmlns="http://www.w3.org/2000/svg" viewBox="0 0 256 256">
  <!-- Actalux mark: ink tile, tan lamp, vermillion flame (the "light"). See /DESIGN.md. -->
  <rect width="256" height="256" fill="#0F0F0F"/>
  <g transform="translate(36 68) scale(0.7744)">
    <path fill="#BCAB92" fill-rule="nonzero" d="M 53.785156 105.464844 C 60.09375 97.457031 55.804688 87.214844 47.359375 81.472656 C 41.617188 77.570312 34.894531 75.460938 28.0625 76.683594 C 23.609375 77.480469 19.898438 80 17.984375 83.429688 C 11.996094 94.132812 22.960938 107.855469 35.582031 111.144531 C 42.40625 112.921875 49.335938 111.113281 53.785156 105.464844 M 223.953125 97.464844 C 214.140625 106.773438 204.351562 115.433594 193.507812 123.34375 C 167.789062 142.109375 140.195312 150.480469 108.289062 148.582031 C 85.445312 147.226562 63.09375 138.839844 43.320312 127.816406 L 36.867188 124.21875 C 29.863281 120.3125 20.433594 114.171875 15.179688 108.527344 C 10.960938 103.996094 7.789062 98.839844 6.628906 92.777344 C 5.027344 84.386719 8.363281 76.335938 15.292969 71.542969 C 19.292969 68.777344 23.777344 67.417969 28.714844 67.019531 C 43.746094 65.816406 56.007812 73.9375 67.574219 82.808594 C 74.851562 88.386719 82 93.472656 90.1875 97.707031 C 115.046875 110.578125 140.445312 110.867188 166.867188 102.371094 L 185.910156 96.246094 C 199.410156 91.902344 218.125 87.898438 232.144531 89.359375 C 231.347656 91.296875 229.796875 91.921875 228.617188 93.042969 Z M 223.953125 97.464844 "/>
    <path fill="#C8553D" fill-rule="nonzero" d="M 139.339844 61.929688 C 137.113281 57.074219 135.097656 52.6875 132.101562 48.074219 C 127.574219 55.675781 124.089844 63.238281 121.664062 71.503906 C 118.535156 82.144531 119.539062 92.546875 123.300781 103.042969 C 111.953125 89.503906 107.976562 72.164062 110.226562 55.265625 C 112.984375 36.871094 122.371094 19.609375 132.183594 3.433594 L 138.410156 13.960938 C 143.027344 21.769531 146.746094 29.8125 149.832031 38.367188 C 152.679688 46.25 154.546875 54.03125 154.890625 62.449219 C 155.496094 77.210938 151.320312 91.84375 141.460938 103.113281 C 143.730469 95.5 145.515625 88.671875 144.519531 81.230469 C 143.890625 74.492188 142.183594 68.238281 139.339844 61.929688 "/>
  </g>
</svg>
