<?xml version="1.0" encoding="UTF-8"?>
<!-- Actalux mark: ink lamp + vermillion flame, transparent. See /DESIGN.md -->
<svg xmlns="http://www.w3.org/2000/svg" xmlns:xlink="http://www.w3.org/1999/xlink" viewBox="0 0 680 680">
<path fill-rule="nonzero" fill="#0F0F0F" fill-opacity="1" d="M 192.386719 406.183594 C 206.628906 388.113281 196.949219 364.992188 177.882812 352.039062 C 164.925781 343.230469 149.75 338.464844 134.332031 341.226562 C 124.285156 343.023438 115.914062 348.714844 111.585938 356.453125 C 98.074219 380.613281 122.816406 411.582031 151.304688 419.003906 C 166.710938 423.019531 182.34375 418.929688 192.386719 406.183594 M 576.449219 388.128906 C 554.300781 409.132812 532.203125 428.6875 507.738281 446.539062 C 449.6875 488.894531 387.410156 507.78125 315.398438 503.503906 C 263.847656 500.441406 213.394531 481.515625 168.765625 456.625 L 154.207031 448.507812 C 138.402344 439.691406 117.113281 425.832031 105.257812 413.097656 C 95.738281 402.871094 88.578125 391.230469 85.960938 377.546875 C 82.34375 358.609375 89.875 340.441406 105.515625 329.625 C 114.542969 323.382812 124.660156 320.3125 135.804688 319.417969 C 169.730469 316.699219 197.40625 335.027344 223.511719 355.046875 C 239.933594 367.640625 256.066406 379.117188 274.542969 388.679688 C 330.648438 417.726562 387.976562 418.378906 447.609375 399.199219 L 490.585938 385.375 C 521.058594 375.570312 563.292969 366.539062 594.933594 369.839844 C 593.136719 374.214844 589.640625 375.617188 586.96875 378.148438 Z M 576.449219 388.128906 "/>
<path fill-rule="nonzero" fill="#C8553D" fill-opacity="1" d="M 385.480469 307.933594 C 380.457031 296.972656 375.902344 287.066406 369.140625 276.652344 C 358.925781 293.8125 351.0625 310.886719 345.582031 329.539062 C 338.527344 353.554688 340.792969 377.03125 349.285156 400.71875 C 323.664062 370.164062 314.695312 331.03125 319.769531 292.890625 C 325.996094 251.367188 347.183594 212.410156 369.332031 175.90625 L 383.378906 199.664062 C 393.804688 217.289062 402.195312 235.441406 409.164062 254.75 C 415.589844 272.542969 419.804688 290.101562 420.582031 309.105469 C 421.945312 342.414062 412.523438 375.441406 390.265625 400.882812 C 395.390625 383.691406 399.421875 368.28125 397.167969 351.492188 C 395.75 336.277344 391.902344 322.167969 385.480469 307.933594 "/>
</svg>
